<?xml version="1.0" ?><svg height="64" preserveAspectRatio="xMidYMid" viewBox="0 0 49 64" width="49" xmlns="http://www.w3.org/2000/svg" xmlns:xlink="http://www.w3.org/1999/xlink"><defs><style>
      .cls-1 {
        fill: #e28500;
      }

      .cls-1, .cls-2, .cls-3 {
        fill-rule: evenodd;
      }

      .cls-2 {
        fill: #fff;
      }

      .cls-3 {
        fill: #ffcf8b;
      }
    </style></defs><g><path class="cls-1" d="M49.000,16.842 L49.000,58.947 C49.000,61.738 46.730,64.000 43.931,64.000 L5.069,64.000 C2.269,64.000 -0.000,61.738 -0.000,58.947 L-0.000,5.053 C-0.000,2.262 2.269,-0.000 5.069,-0.000 L32.103,-0.000 L49.000,16.842 Z"/><path class="cls-2" d="M36.949,48.182 C36.169,48.800 34.917,49.109 33.192,49.109 C31.770,49.109 30.527,48.838 29.462,48.295 L30.152,46.386 C31.138,46.844 32.152,47.074 33.192,47.074 C34.160,47.074 34.833,46.935 35.212,46.658 C35.590,46.380 35.779,45.913 35.779,45.255 L35.779,44.477 C35.004,45.183 34.069,45.536 32.974,45.536 C31.813,45.536 30.899,45.120 30.234,44.288 C29.568,43.455 29.235,42.258 29.235,40.696 C29.235,39.719 29.391,38.858 29.703,38.114 C30.014,37.369 30.471,36.793 31.073,36.386 C31.675,35.979 32.403,35.775 33.256,35.775 C33.758,35.775 34.260,35.885 34.762,36.105 C35.264,36.326 35.685,36.604 36.024,36.942 L36.332,36.047 L38.120,36.047 L38.120,45.355 C38.120,46.621 37.730,47.564 36.949,48.182 ZM35.779,38.679 C35.137,38.112 34.439,37.829 33.682,37.829 C33.114,37.829 32.633,38.088 32.239,38.607 C31.846,39.125 31.649,39.810 31.649,40.660 C31.649,41.625 31.823,42.337 32.171,42.795 C32.519,43.253 32.971,43.482 33.528,43.482 C34.302,43.482 35.053,43.172 35.779,42.551 L35.779,38.679 ZM26.140,45.201 C25.566,45.611 24.879,45.816 24.080,45.816 C23.028,45.816 22.129,45.488 21.385,44.830 L21.385,49.109 L19.044,49.109 L19.044,36.047 L21.203,36.047 L21.203,36.978 C21.639,36.604 22.097,36.310 22.578,36.096 C23.059,35.882 23.611,35.775 24.235,35.775 C25.439,35.775 26.355,36.197 26.984,37.042 C27.614,37.886 27.928,39.113 27.928,40.723 C27.928,41.743 27.774,42.641 27.465,43.419 C27.157,44.197 26.715,44.791 26.140,45.201 ZM25.033,38.602 C24.712,38.086 24.235,37.829 23.599,37.829 C23.218,37.829 22.826,37.918 22.424,38.095 C22.022,38.273 21.675,38.492 21.385,38.751 L21.385,42.903 C21.633,43.127 21.940,43.324 22.306,43.496 C22.672,43.668 23.049,43.754 23.436,43.754 C24.077,43.754 24.584,43.481 24.956,42.935 C25.328,42.389 25.514,41.664 25.514,40.760 C25.514,39.837 25.354,39.118 25.033,38.602 ZM15.595,34.644 C15.098,34.644 14.760,34.542 14.578,34.337 C14.397,34.132 14.306,33.839 14.306,33.459 C14.306,33.037 14.403,32.734 14.596,32.550 C14.790,32.366 15.123,32.274 15.595,32.274 C16.066,32.274 16.404,32.363 16.606,32.541 C16.809,32.719 16.910,33.025 16.910,33.459 C16.910,33.900 16.802,34.207 16.584,34.382 C16.366,34.557 16.036,34.644 15.595,34.644 ZM14.442,36.047 L16.783,36.047 L16.783,45.943 C16.783,47.077 16.529,47.888 16.021,48.376 C15.513,48.865 14.681,49.109 13.525,49.109 C13.265,49.109 12.923,49.080 12.500,49.023 C12.076,48.966 11.750,48.904 11.520,48.838 L12.028,46.811 C12.470,46.986 12.926,47.074 13.398,47.074 C13.870,47.074 14.162,46.929 14.274,46.639 C14.386,46.350 14.442,45.871 14.442,45.201 L14.442,36.047 Z"/><path class="cls-3" d="M49.000,15.899 L49.000,17.995 L35.187,17.995 C32.327,17.995 31.008,15.675 31.008,12.814 L31.008,-0.000 L33.100,-0.000 L49.000,15.899 Z"/></g></svg>