<?xml version="1.0" ?><svg height="64" preserveAspectRatio="xMidYMid" viewBox="0 0 49 64" width="49" xmlns="http://www.w3.org/2000/svg" xmlns:xlink="http://www.w3.org/1999/xlink"><defs><style>
      .cls-1 {
        fill: #2d25de;
      }

      .cls-1, .cls-2, .cls-3 {
        fill-rule: evenodd;
      }

      .cls-2 {
        fill: #fff;
      }

      .cls-3 {
        fill: #91a8ff;
      }
    </style></defs><g><path class="cls-1" d="M49.000,16.842 L49.000,58.947 C49.000,61.738 46.730,64.000 43.931,64.000 L5.069,64.000 C2.269,64.000 -0.000,61.738 -0.000,58.947 L-0.000,5.053 C-0.000,2.262 2.269,-0.000 5.069,-0.000 L32.103,-0.000 L49.000,16.842 Z"/><path class="cls-2" d="M37.718,38.905 C38.547,38.959 39.216,39.271 39.724,39.841 C40.232,40.411 40.486,41.137 40.486,42.017 C40.486,43.301 40.064,44.253 39.220,44.871 C38.376,45.489 37.216,45.798 35.740,45.798 C34.687,45.798 33.796,45.607 33.067,45.224 C32.338,44.841 31.819,44.357 31.511,43.772 L33.571,42.370 C33.795,42.713 34.073,42.991 34.406,43.202 C34.739,43.413 35.192,43.519 35.767,43.519 C36.493,43.519 37.021,43.380 37.351,43.102 C37.681,42.825 37.845,42.400 37.845,41.827 C37.845,40.669 37.077,40.090 35.540,40.090 L34.424,40.090 L34.424,37.901 L35.395,37.901 C36.163,37.901 36.723,37.750 37.074,37.449 C37.425,37.147 37.600,36.755 37.600,36.273 C37.600,35.917 37.473,35.621 37.219,35.386 C36.965,35.151 36.548,35.033 35.967,35.033 C35.386,35.033 34.922,35.125 34.574,35.309 C34.226,35.493 33.928,35.772 33.680,36.146 L31.638,34.717 C32.134,34.047 32.734,33.553 33.439,33.233 C34.144,32.914 35.050,32.754 36.157,32.754 C36.998,32.754 37.732,32.885 38.358,33.147 C38.984,33.410 39.458,33.773 39.778,34.237 C40.099,34.702 40.259,35.232 40.259,35.829 C40.259,37.464 39.412,38.489 37.718,38.905 ZM29.767,45.201 C29.192,45.611 28.505,45.816 27.707,45.816 C26.654,45.816 25.756,45.488 25.012,44.830 L25.012,49.109 L22.670,49.109 L22.670,36.047 L24.830,36.047 L24.830,36.978 C25.266,36.604 25.724,36.310 26.205,36.096 C26.686,35.882 27.238,35.775 27.861,35.775 C29.065,35.775 29.982,36.197 30.611,37.042 C31.240,37.886 31.555,39.113 31.555,40.723 C31.555,41.743 31.401,42.641 31.092,43.419 C30.783,44.197 30.342,44.791 29.767,45.201 ZM28.660,38.602 C28.339,38.086 27.861,37.829 27.226,37.829 C26.845,37.829 26.453,37.918 26.051,38.095 C25.648,38.273 25.302,38.492 25.012,38.751 L25.012,42.903 C25.260,43.127 25.567,43.324 25.933,43.496 C26.299,43.668 26.675,43.754 27.063,43.754 C27.704,43.754 28.211,43.481 28.583,42.935 C28.955,42.389 29.141,41.664 29.141,40.760 C29.141,39.837 28.980,39.118 28.660,38.602 ZM19.256,39.945 C19.256,39.385 19.223,38.947 19.156,38.634 C19.090,38.320 18.989,38.108 18.852,37.996 C18.716,37.884 18.491,37.829 18.176,37.829 C17.819,37.829 17.441,37.961 17.042,38.227 C16.643,38.492 16.271,38.818 15.926,39.204 L15.926,45.536 L13.584,45.536 L13.584,39.945 C13.584,39.330 13.557,38.886 13.503,38.611 C13.448,38.337 13.351,38.138 13.212,38.014 C13.073,37.891 12.837,37.829 12.504,37.829 C12.214,37.829 11.878,37.939 11.497,38.159 C11.116,38.379 10.701,38.727 10.254,39.204 L10.254,45.536 L7.912,45.536 L7.912,36.047 L10.254,36.047 L10.254,37.277 C10.689,36.806 11.146,36.439 11.624,36.173 C12.102,35.908 12.631,35.775 13.212,35.775 C14.005,35.775 14.590,35.911 14.968,36.182 C15.346,36.454 15.605,36.855 15.744,37.385 C16.289,36.843 16.798,36.439 17.273,36.173 C17.748,35.908 18.303,35.775 18.939,35.775 C19.864,35.775 20.539,36.038 20.962,36.562 C21.386,37.087 21.598,37.967 21.598,39.204 L21.598,45.536 L19.256,45.536 L19.256,39.945 Z"/><path class="cls-3" d="M49.000,15.899 L49.000,17.995 L35.187,17.995 C32.327,17.995 31.008,15.675 31.008,12.814 L31.008,-0.000 L33.100,-0.000 L49.000,15.899 Z"/></g></svg>