<?xml version="1.0" ?><svg height="64" preserveAspectRatio="xMidYMid" viewBox="0 0 49 64" width="49" xmlns="http://www.w3.org/2000/svg" xmlns:xlink="http://www.w3.org/1999/xlink"><defs><style>
      .cls-1 {
        fill: #d15ae3;
      }

      .cls-1, .cls-2, .cls-3 {
        fill-rule: evenodd;
      }

      .cls-2 {
        fill: #fff;
      }

      .cls-3 {
        fill: #ed91fa;
      }
    </style></defs><g><path class="cls-1" d="M49.000,16.842 L49.000,58.947 C49.000,61.738 46.730,64.000 43.931,64.000 L5.069,64.000 C2.269,64.000 -0.000,61.738 -0.000,58.947 L-0.000,5.053 C-0.000,2.262 2.269,-0.000 5.069,-0.000 L32.103,-0.000 L49.000,16.842 Z"/><path class="cls-2" d="M37.917,48.182 C37.137,48.800 35.884,49.109 34.160,49.109 C32.738,49.109 31.495,48.838 30.430,48.295 L31.120,46.386 C32.106,46.844 33.119,47.074 34.160,47.074 C35.128,47.074 35.801,46.935 36.179,46.658 C36.557,46.380 36.746,45.913 36.746,45.255 L36.746,44.477 C35.972,45.183 35.037,45.536 33.942,45.536 C32.780,45.536 31.867,45.120 31.201,44.288 C30.536,43.455 30.203,42.258 30.203,40.696 C30.203,39.719 30.359,38.858 30.670,38.114 C30.982,37.369 31.439,36.793 32.041,36.386 C32.643,35.979 33.370,35.775 34.223,35.775 C34.726,35.775 35.228,35.885 35.730,36.105 C36.232,36.326 36.653,36.604 36.991,36.942 L37.300,36.047 L39.088,36.047 L39.088,45.355 C39.088,46.621 38.698,47.564 37.917,48.182 ZM36.746,38.679 C36.105,38.112 35.406,37.829 34.650,37.829 C34.081,37.829 33.600,38.088 33.207,38.607 C32.814,39.125 32.617,39.810 32.617,40.660 C32.617,41.625 32.791,42.337 33.139,42.795 C33.487,43.253 33.939,43.482 34.496,43.482 C35.270,43.482 36.020,43.172 36.746,42.551 L36.746,38.679 ZM26.146,40.307 C26.146,39.318 26.057,38.658 25.878,38.326 C25.700,37.995 25.362,37.829 24.866,37.829 C24.171,37.829 23.333,38.287 22.353,39.204 L22.353,45.536 L20.011,45.536 L20.011,36.047 L22.353,36.047 L22.353,37.277 C22.849,36.782 23.378,36.408 23.941,36.155 C24.503,35.902 25.054,35.775 25.592,35.775 C26.567,35.775 27.293,36.041 27.771,36.571 C28.248,37.102 28.487,37.979 28.487,39.204 L28.487,45.536 L26.146,45.536 L26.146,40.307 ZM16.435,45.201 C15.860,45.611 15.174,45.816 14.375,45.816 C13.322,45.816 12.424,45.488 11.680,44.830 L11.680,49.109 L9.338,49.109 L9.338,36.047 L11.498,36.047 L11.498,36.978 C11.934,36.604 12.392,36.310 12.873,36.096 C13.354,35.882 13.906,35.775 14.529,35.775 C15.733,35.775 16.650,36.197 17.279,37.042 C17.908,37.886 18.223,39.113 18.223,40.723 C18.223,41.743 18.069,42.641 17.760,43.419 C17.452,44.197 17.010,44.791 16.435,45.201 ZM15.328,38.602 C15.007,38.086 14.529,37.829 13.894,37.829 C13.513,37.829 13.121,37.918 12.719,38.095 C12.316,38.273 11.970,38.492 11.680,38.751 L11.680,42.903 C11.928,43.127 12.235,43.324 12.601,43.496 C12.967,43.668 13.343,43.754 13.731,43.754 C14.372,43.754 14.879,43.481 15.251,42.935 C15.623,42.389 15.809,41.664 15.809,40.760 C15.809,39.837 15.649,39.118 15.328,38.602 Z"/><path class="cls-3" d="M49.000,15.899 L49.000,17.995 L35.187,17.995 C32.327,17.995 31.008,15.675 31.008,12.814 L31.008,-0.000 L33.100,-0.000 L49.000,15.899 Z"/></g></svg>